<svg width="45" height="45" viewBox="0 0 45 45" fill="none" xmlns="http://www.w3.org/2000/svg">
<path d="M0 0H30C38.2843 0 45 6.71573 45 15V30C45 38.2843 38.2843 45 30 45H15C6.71573 45 0 38.2843 0 30V0Z" fill="#C0E0CE"/>
<path d="M18.1485 38.8973H25.0743V25.0285H31.3144L32 18.1374H25.0743V14.6572C25.0743 14.198 25.2567 13.7576 25.5814 13.4329C25.9061 13.1082 26.3465 12.9257 26.8057 12.9257H32V6H26.8057C24.5097 6 22.3077 6.91209 20.6841 8.53563C19.0606 10.1592 18.1485 12.3612 18.1485 14.6572V18.1374H14.6856L14 25.0285H18.1485V38.8973Z" fill="white"/>
</svg>
