<?xml version="1.0" encoding="UTF-8"?>
<svg xmlns="http://www.w3.org/2000/svg" version="1.1" viewBox="0 0 255.3 92.1">
  <defs>
    <style>
      .cls-1 {
        fill: #e64011;
      }

      .cls-2 {
        fill: #1d1d1b;
      }
    </style>
  </defs>
  <!-- Generator: Adobe Illustrator 28.6.0, SVG Export Plug-In . SVG Version: 1.2.0 Build 709)  -->
  <g>
    <g id="Ebene_1">
      <g>
        <g>
          <path class="cls-2" d="M132.7,84.2l-1.6-.6c-1.2-.4-1.4-1-1.4-1.5,0-1,1-1.5,1.9-1.5s1.7.5,1.9,1.4h0c0,.1,1.2-.2,1.2-.2h0c-.3-1.6-1.5-2.4-3.1-2.4s-3.3,1-3.3,2.8.8,2.1,2.3,2.6l1.6.5c.5.1,1.5.6,1.5,1.6s-.9,1.6-2.2,1.6-2.2-.8-2.4-1.5h0c0-.1-1.3.2-1.3.2h0c.4,1.6,1.9,2.5,3.7,2.5s3.5-1.2,3.5-2.9-1-2.2-2.5-2.7Z"/>
          <path class="cls-2" d="M167.6,79.4c-2.9,0-5.2,2.3-5.2,5.2s2.3,5.2,5.2,5.2,5.2-2.3,5.2-5.2-2.3-5.2-5.2-5.2ZM171.5,84.6c0,2.2-1.7,4-3.9,4s-3.9-1.8-3.9-4,1.7-4,3.9-4,3.9,1.7,3.9,4Z"/>
          <path class="cls-2" d="M106.8,79.6h-3.1v10.1h3.1c3.1,0,5.2-2.1,5.2-5s-2.1-5-5.2-5ZM110.7,84.6c0,2.3-1.6,3.9-3.9,3.9h-1.7v-7.8h1.7c2.3,0,3.9,1.6,3.9,3.9Z"/>
          <path class="cls-2" d="M119.3,79.6l-4,10.1h1.4l.8-2.1h5l.8,2.1h1.4l-4-10.1h-1.5ZM122.1,86.4h-4.1l2.1-5.3,2.1,5.3Z"/>
          <polygon class="cls-2" points="157.1 79.6 155.6 79.6 152.1 87.7 148.7 79.7 148.6 79.6 147.2 79.6 146.2 89.5 146.2 89.7 147.6 89.7 148.3 81.8 151.6 89.5 151.6 89.5 152.6 89.5 156 81.8 156.7 89.6 156.7 89.7 158 89.7 157.1 79.7 157.1 79.6"/>
          <path class="cls-2" d="M244.4,84.2l-1.6-.6c-1.2-.4-1.4-1-1.4-1.5,0-1,1-1.5,1.9-1.5s1.7.5,1.9,1.4h0c0,.1,1.2-.2,1.2-.2h0c-.3-1.6-1.5-2.4-3.1-2.4s-3.3,1-3.3,2.8.8,2.1,2.3,2.6l1.6.5c.5.1,1.5.6,1.5,1.6s-.9,1.6-2.2,1.6-2.2-.8-2.4-1.5h0c0-.1-1.3.2-1.3.2h0c.4,1.6,1.9,2.5,3.7,2.5s3.5-1.2,3.5-2.9-1-2.2-2.5-2.7Z"/>
          <path class="cls-2" d="M251.8,88c-.5,0-.9.4-.9.9s.4.9.9.9.9-.4.9-.9-.4-.9-.9-.9Z"/>
          <path class="cls-2" d="M233.8,86c0,2-1.4,2.6-2.6,2.6s-2.6-.7-2.6-2.6v-6.4h-1.3v6.4c0,2.7,2,3.9,4,3.9s3.9-1.2,3.9-3.9v-6.4h-1.3v6.4Z"/>
          <path class="cls-2" d="M217.8,79.6l-4,10.1h1.4l.8-2.1h5l.8,2h0c0,0,1.4,0,1.4,0l-4-10.1h-1.5ZM220.6,86.4h-4.1l2.1-5.3,2.1,5.3Z"/>
          <path class="cls-2" d="M180.8,79.6h-3.1v10.1h3.1c3.1,0,5.2-2.1,5.2-5s-2.1-5-5.2-5ZM184.7,84.6c0,2.3-1.6,3.9-3.9,3.9h-1.7v-7.8h1.7c2.3,0,3.9,1.6,3.9,3.9Z"/>
          <polygon class="cls-2" points="190.8 89.7 197.2 89.7 197.2 88.5 192.2 88.5 192.2 85.3 196.6 85.3 196.6 84.2 192.2 84.2 192.2 80.7 197.2 80.7 197.2 79.6 190.8 79.6 190.8 89.7"/>
          <polygon class="cls-2" points="208.2 84.3 203.4 84.3 203.4 79.6 202.1 79.6 202.1 89.7 203.4 89.7 203.4 85.4 208.2 85.4 208.2 89.7 209.5 89.7 209.5 79.6 208.2 79.6 208.2 84.3"/>
        </g>
        <path class="cls-1" d="M96.3,38.8c0-11.9-10-21.5-22.4-21.5s-22.4,9.6-22.4,21.5,10,21.5,22.4,21.5,22.4-9.6,22.4-21.5h0ZM85,38.8c0,6.2-5,11.3-11.1,11.3s-11.1-5-11.1-11.3,5-11.3,11.1-11.3,11.1,5,11.1,11.3h0ZM124.6,17.3c-4.3,0-8.2,1.7-11.1,4.6V1.9h-11.3v57.1h10.5v-5c2.6,3.8,6.9,6.2,11.8,6.2,12.3,0,22.3-9.6,22.3-21.5s-10-21.5-22.3-21.5h0ZM124.4,50.1c-6.2,0-11.3-5-11.3-11.3s5-11.3,11.3-11.3,11.3,5,11.3,11.3-5,11.3-11.3,11.3h0ZM174,17.3c-12.5,0-22.6,9.6-22.6,21.5s10.1,21.5,22.6,21.5,18.3-6.1,21.4-14.6h-12.5c-2,2.6-5.3,4.4-8.9,4.4s-8.9-3.1-10.6-7.4h32.8c.2-1.3.4-2.6.4-3.9,0-11.9-10.1-21.5-22.6-21.5h0ZM163.4,34.9c1.7-4.3,5.7-7.4,10.6-7.4s8.9,3.1,10.6,7.4h-21.2ZM202.2,38.8v20.3h11.3v-20.3c0-6.2,5-11.3,11.3-11.3v-10.2h-1.5c-12.5,0-21.1,9.6-21.1,21.5h0ZM241.4,1.9h-11.3v36.8c0,11.9,8.6,21.5,21.1,21.5h1.5v-10.2c-6.2,0-11.3-5-11.3-11.3v-11.7h11.3v-9.6l-11.3-.2V1.9h0Z"/>
        <path class="cls-1" d="M24.7,60.2c-11.8,0-21.4-9.6-21.4-21.4s9.6-21.4,21.4-21.4,21.4,9.6,21.4,21.4-9.6,21.4-21.4,21.4h0ZM24.7,27.4c-6.3,0-11.5,5.2-11.5,11.5s5.2,11.5,11.5,11.5,11.5-5.2,11.5-11.5-5.2-11.5-11.5-11.5h0Z"/>
        <path class="cls-1" d="M32.8,56.3h0s-30.6,0-30.6,0v1.2c0,4.8,3.4,8.7,7.5,8.7h23.1c3.7,0,6.8,3.1,6.8,6.8s-3.1,6.8-6.8,6.8v9.9c9.2,0,16.7-7.5,16.7-16.7s-7.5-16.7-16.7-16.7h0Z"/>
      </g>
    </g>
  </g>
</svg>