<svg xmlns="http://www.w3.org/2000/svg" width="45" height="45" viewBox="0 0 45 45">
  <g id="Grupo_5210" data-name="Grupo 5210" transform="translate(-410 -8895)">
    <path id="Rectángulo_1061" data-name="Rectángulo 1061" d="M0,0H35A10,10,0,0,1,45,10V35A10,10,0,0,1,35,45H10A10,10,0,0,1,0,35V0A0,0,0,0,1,0,0Z" transform="translate(410 8895)" fill="#c0e0ce"/>
    <g id="facebook" transform="translate(425.766 8904.033)">
      <g id="Grupo_5021" data-name="Grupo 5021" transform="translate(0)">
        <path id="Trazado_20354" data-name="Trazado 20354" d="M26.016,5.134h3.451V0H25.385c-4.924.21-5.934,2.988-6.018,5.892h0V8.459H16v5.008h3.367V26.934h5.05V13.467h4.166l.8-5.008H24.417V6.9A1.667,1.667,0,0,1,26.016,5.134Z" transform="translate(-16)" fill="#fff"/>
      </g>
    </g>
  </g>
</svg>
