<svg xmlns="http://www.w3.org/2000/svg" width="45" height="45" viewBox="0 0 45 45">
  <g id="Grupo_5209" data-name="Grupo 5209" transform="translate(-471 -8894)">
    <path id="Rectángulo_1060" data-name="Rectángulo 1060" d="M0,0H35A10,10,0,0,1,45,10V35A10,10,0,0,1,35,45H10A10,10,0,0,1,0,35V0A0,0,0,0,1,0,0Z" transform="translate(471 8894)" fill="#c0e0ce"/>
    <path id="instagram" d="M3.075,0h17.85A3,3,0,0,1,24,3.075v17.85A3,3,0,0,1,20.925,24H3.075A3,3,0,0,1,0,20.925V3.075A3,3,0,0,1,3.075,0Zm14.4,2.663A1.088,1.088,0,0,0,16.388,3.75V6.338a1.088,1.088,0,0,0,1.087,1.087h2.7a1.088,1.088,0,0,0,1.088-1.087V3.75a1.088,1.088,0,0,0-1.088-1.087Zm3.825,7.5H19.2a7.409,7.409,0,0,1,.3,2.062,7.365,7.365,0,0,1-7.463,7.238,7.34,7.34,0,0,1-7.463-7.238,7.409,7.409,0,0,1,.3-2.062H2.662V20.288a.928.928,0,0,0,.938.937H20.325a.928.928,0,0,0,.938-.937L21.3,10.163ZM12.038,7.275A4.771,4.771,0,0,0,7.2,11.962a4.74,4.74,0,0,0,4.838,4.65,4.771,4.771,0,0,0,4.838-4.687A4.74,4.74,0,0,0,12.038,7.275Z" transform="translate(482 8905)" fill="#fff"/>
  </g>
</svg>
