<?xml version="1.0" encoding="UTF-8"?>
<svg xmlns="http://www.w3.org/2000/svg" version="1.1" viewBox="0 0 255.3 92.1">
  <defs>
    <style>
      .cls-1 {
        fill: #fff;
      }
    </style>
  </defs>
  <!-- Generator: Adobe Illustrator 28.6.0, SVG Export Plug-In . SVG Version: 1.2.0 Build 709)  -->
  <g>
    <g id="Ebene_1">
      <g>
        <g>
          <path class="cls-1" d="M132.8,84l-1.6-.6c-1.1-.4-1.3-.9-1.3-1.3,0-1,.9-1.4,1.8-1.4s1.6.4,1.8,1.3v.3c0,0,1.5-.4,1.5-.4v-.2c-.4-1.5-1.6-2.4-3.3-2.4s-3.4,1-3.4,2.9.8,2.2,2.4,2.8l1.6.5c.4.1,1.4.6,1.4,1.5s-.8,1.5-2.1,1.5-2.1-.7-2.3-1.4v-.2c0,0-1.6.4-1.6.4v.2c.5,1.5,2,2.5,3.9,2.5s3.6-1.2,3.6-3-1-2.4-2.5-2.8Z"/>
          <polygon class="cls-1" points="155.6 79.4 152.2 87.3 148.8 79.4 147.1 79.4 146.2 89.8 147.8 89.8 148.4 82.3 151.6 89.6 152.8 89.6 156 82.3 156.6 89.8 158.2 89.8 157.3 79.4 155.6 79.4"/>
          <path class="cls-1" d="M119.3,79.4l-4.1,10.3h1.7l.8-2.1h4.8l.8,2.1h1.7l-4.1-10.3h-1.6ZM122,86.2h-3.8l1.9-4.8,1.9,4.8Z"/>
          <path class="cls-1" d="M106.9,79.4h-3.2v10.3h3.2c3.1,0,5.4-2.1,5.4-5.2s-2.2-5.2-5.4-5.2ZM110.7,84.6c0,2.2-1.5,3.8-3.8,3.8h-1.6v-7.5h1.6c2.2,0,3.8,1.5,3.8,3.8Z"/>
          <path class="cls-1" d="M244.5,84l-1.6-.6c-1.1-.4-1.3-.9-1.3-1.3,0-1,.9-1.4,1.8-1.4s1.6.4,1.8,1.3v.3c0,0,1.5-.4,1.5-.4v-.2c-.4-1.5-1.6-2.4-3.3-2.4s-3.4,1-3.4,2.9.8,2.2,2.4,2.8l1.6.5c.4.1,1.4.6,1.4,1.5s-.8,1.5-2.1,1.5-2.1-.7-2.3-1.4v-.2c0,0-1.6.4-1.6.4v.2c.5,1.5,2,2.5,3.9,2.5s3.6-1.2,3.6-3-1-2.4-2.5-2.8Z"/>
          <path class="cls-1" d="M233.7,85.9c0,1.9-1.3,2.5-2.5,2.5s-2.5-.7-2.5-2.5v-6.5h-1.6v6.5c0,2.8,2.1,4,4.1,4s4.1-1.2,4.1-4v-6.5h-1.6v6.5Z"/>
          <path class="cls-1" d="M217.8,79.4l-4.1,10.3h1.7l.8-2.1h4.8l.8,2.1h1.7l-4.1-10.3h-1.6ZM220.5,86.2h-3.8l1.9-4.8,1.9,4.8Z"/>
          <path class="cls-1" d="M251.9,87.9c-.6,0-1,.4-1,1s.4,1,1,1,1-.4,1-1-.4-1-1-1Z"/>
          <polygon class="cls-1" points="190.8 89.8 197.4 89.8 197.4 88.4 192.4 88.4 192.4 85.4 196.8 85.4 196.8 84 192.4 84 192.4 80.8 197.4 80.8 197.4 79.4 190.8 79.4 190.8 89.8"/>
          <polygon class="cls-1" points="208.2 84.1 203.6 84.1 203.6 79.4 202 79.4 202 89.8 203.6 89.8 203.6 85.5 208.2 85.5 208.2 89.8 209.7 89.8 209.7 79.4 208.2 79.4 208.2 84.1"/>
          <path class="cls-1" d="M180.8,79.4h-3.2v10.3h3.2c3.1,0,5.3-2.1,5.3-5.2s-2.2-5.2-5.3-5.2ZM184.6,84.6c0,2.2-1.5,3.8-3.8,3.8h-1.6v-7.5h1.6c2.2,0,3.8,1.5,3.8,3.8Z"/>
          <path class="cls-1" d="M167.7,79.3c-3,0-5.4,2.4-5.4,5.3s2.4,5.3,5.4,5.3,5.3-2.4,5.3-5.3-2.4-5.3-5.3-5.3ZM171.5,84.6c0,2.2-1.6,3.8-3.7,3.8s-3.7-1.7-3.7-3.8,1.7-3.8,3.7-3.8,3.7,1.7,3.7,3.8Z"/>
        </g>
        <path class="cls-1" d="M96.3,38.7c0-11.9-10-21.5-22.4-21.5s-22.4,9.6-22.4,21.5,10,21.5,22.4,21.5,22.4-9.6,22.4-21.5h0ZM85.1,38.7c0,6.2-5,11.3-11.1,11.3s-11.1-5-11.1-11.3,5-11.3,11.1-11.3,11.1,5,11.1,11.3h0ZM124.7,17.2c-4.3,0-8.2,1.7-11.1,4.6V1.9h-11.3v57.1h10.5v-5c2.6,3.8,6.9,6.2,11.8,6.2,12.3,0,22.3-9.6,22.3-21.5s-10-21.5-22.3-21.5h0ZM124.5,50c-6.2,0-11.3-5-11.3-11.3s5-11.3,11.3-11.3,11.3,5,11.3,11.3-5,11.3-11.3,11.3h0ZM174,17.2c-12.5,0-22.6,9.6-22.6,21.5s10.1,21.5,22.6,21.5,18.3-6.1,21.4-14.6h-12.5c-2,2.6-5.3,4.4-8.9,4.4s-8.9-3.1-10.6-7.4h32.8c.2-1.3.4-2.6.4-3.9,0-11.9-10.1-21.5-22.6-21.5h0ZM163.4,34.8c1.7-4.3,5.7-7.4,10.6-7.4s8.9,3.1,10.6,7.4h-21.2ZM202.2,38.7v20.3h11.3v-20.3c0-6.2,5-11.3,11.3-11.3v-10.2h-1.5c-12.5,0-21.1,9.6-21.1,21.5h0ZM241.5,1.9h-11.3v36.8c0,11.9,8.6,21.5,21.1,21.5h1.5v-10.2c-6.2,0-11.3-5-11.3-11.3v-11.7h11.3v-9.6l-11.3-.2V1.9h0Z"/>
        <path class="cls-1" d="M24.8,60.2c-11.8,0-21.4-9.6-21.4-21.4s9.6-21.4,21.4-21.4,21.4,9.6,21.4,21.4-9.6,21.4-21.4,21.4h0ZM24.8,27.3c-6.3,0-11.5,5.2-11.5,11.5s5.2,11.5,11.5,11.5,11.5-5.2,11.5-11.5-5.2-11.5-11.5-11.5h0Z"/>
        <path class="cls-1" d="M32.9,56.2h0s-30.6,0-30.6,0v1.2c0,4.8,3.4,8.7,7.5,8.7h23.1c3.7,0,6.8,3.1,6.8,6.8s-3.1,6.8-6.8,6.8v9.9c9.2,0,16.7-7.5,16.7-16.7s-7.5-16.7-16.7-16.7h0Z"/>
      </g>
    </g>
  </g>
</svg>