<svg width="45" height="45" viewBox="0 0 45 45" fill="none" xmlns="http://www.w3.org/2000/svg">
<path d="M0 0H30C38.2843 0 45 6.71573 45 15V30C45 38.2843 38.2843 45 30 45H15C6.71573 45 0 38.2843 0 30V0Z" fill="#C0E0CE"/>
<g clip-path="url(#clip0_99_12)">
<path d="M32.75 10H13.25C12.0125 10 11 11.0125 11 12.25V31.75C11 32.9875 12.0125 34 13.25 34H32.75C33.9875 34 35 32.9875 35 31.75V12.25C35 11.0125 33.9875 10 32.75 10ZM27.5 13.75C27.5 13.3375 27.8375 13 28.25 13H31.25C31.6625 13 32 13.3375 32 13.75V16.75C32 17.1625 31.6625 17.5 31.25 17.5H28.25C28.0511 17.5 27.8603 17.421 27.7197 17.2803C27.579 17.1397 27.5 16.9489 27.5 16.75V13.75ZM23 17.5C24.1734 17.5303 25.2885 18.0177 26.1077 18.8583C26.9268 19.6989 27.3853 20.8263 27.3853 22C27.3853 23.1737 26.9268 24.3011 26.1077 25.1417C25.2885 25.9823 24.1734 26.4697 23 26.5C21.8266 26.4697 20.7115 25.9823 19.8923 25.1417C19.0732 24.3011 18.6147 23.1737 18.6147 22C18.6147 20.8263 19.0732 19.6989 19.8923 18.8583C20.7115 18.0177 21.8266 17.5303 23 17.5ZM32 30.25C32 30.6625 31.6625 31 31.25 31H14.75C14.5511 31 14.3603 30.921 14.2197 30.7803C14.079 30.6397 14 30.4489 14 30.25V20.5H15.65C15.4275 21.5898 15.4503 22.7154 15.7165 23.7954C15.9828 24.8753 16.4859 25.8825 17.1895 26.744C17.893 27.6055 18.7794 28.2997 19.7844 28.7764C20.7893 29.2531 21.8877 29.5002 23 29.5C24.1123 29.5002 25.2107 29.2531 26.2156 28.7764C27.2206 28.2997 28.107 27.6055 28.8105 26.744C29.5141 25.8825 30.0172 24.8753 30.2835 23.7954C30.5497 22.7154 30.5725 21.5898 30.35 20.5H32V30.25Z" fill="white"/>
</g>
<defs>
<clipPath id="clip0_99_12">
<rect width="24" height="24" fill="white" transform="translate(11 10)"/>
</clipPath>
</defs>
</svg>
