<svg id="Grupo_5115" data-name="Grupo 5115" xmlns="http://www.w3.org/2000/svg" width="114.434" height="222.135" viewBox="0 0 114.434 222.135">
  <path id="Trazado_20621" data-name="Trazado 20621" d="M1506.772,21.826h93.417a20.857,20.857,0,0,1,21.017,20.693v180.75a20.857,20.857,0,0,1-21.017,20.693h-72.4a20.857,20.857,0,0,1-21.015-20.693Z" transform="translate(-1506.772 -21.826)" fill="#b8dac2"/>
  <path id="Trazado_20622" data-name="Trazado 20622" d="M1569.7,118.445a16.118,16.118,0,1,1-16.118-16.119,16.138,16.138,0,0,1,16.118,16.119m13.9,0a30.012,30.012,0,1,0-42.863,27.083H1521.92v1.714c0,6.7,4.736,12.136,10.582,12.136h32.433v.015a9.548,9.548,0,1,1,0,19.1v13.892a23.425,23.425,0,0,0,1.4-46.809,30.027,30.027,0,0,0,17.255-27.127" transform="translate(-1499.528 11.093)" fill="#df2808"/>
  <text id="GOBERT_DAS_MODE-_HAUS" data-name="GOBERT 
DAS MODE-
HAUS" transform="translate(57.139 36.889)" fill="#e74011" font-size="16" font-family="FilsonProRegular, Filson Pro"><tspan x="-34.352" y="0">GOBERT </tspan><tspan x="-46.136" y="21">DAS MODE-</tspan><tspan x="-21.584" y="42">HAUS</tspan></text>
</svg>
