<svg id="Grupo_5252" data-name="Grupo 5252" xmlns="http://www.w3.org/2000/svg" width="114.434" height="194.312" viewBox="0 0 114.434 194.312">
  <path id="Trazado_20621" data-name="Trazado 20621" d="M1506.772,21.826h93.417c11.607,0,21.017,8.1,21.017,18.1v158.11c0,10-9.409,18.1-21.017,18.1h-72.4c-11.606,0-21.015-8.1-21.015-18.1Z" transform="translate(-1506.772 -21.826)" fill="#b8dac2"/>
  <path id="Trazado_20622" data-name="Trazado 20622" d="M1569.7,118.445a16.118,16.118,0,1,1-16.118-16.119,16.138,16.138,0,0,1,16.118,16.119m13.9,0a30.012,30.012,0,1,0-42.863,27.083H1521.92v1.714c0,6.7,4.736,12.136,10.582,12.136h32.433v.015a9.548,9.548,0,1,1,0,19.1v13.892a23.425,23.425,0,0,0,1.4-46.809,30.027,30.027,0,0,0,17.255-27.127" transform="translate(-1497.932 -59.459)" fill="#df2808"/>
  <text id="seit_1911" data-name="seit 1911" transform="translate(56.988 161.338)" fill="#e74011" font-size="16" font-family="FilsonProRegular, Filson Pro"><tspan x="-32.392" y="0">SEIT 1911</tspan></text>
</svg>
